<?xml version="1.0" encoding="UTF-8" standalone="no"?>
<svg
   xmlns:dc="http://purl.org/dc/elements/1.1/"
   xmlns:cc="http://creativecommons.org/ns#"
   xmlns:rdf="http://www.w3.org/1999/02/22-rdf-syntax-ns#"
   xmlns:svg="http://www.w3.org/2000/svg"
   xmlns="http://www.w3.org/2000/svg"
   viewBox="0 0 1066.6667 1066.6667"
   height="1066.6667"
   width="1066.6667"
   xml:space="preserve"
   id="svg2"
   version="1.1"><metadata
     id="metadata8"><rdf:RDF><cc:Work
         rdf:about=""><dc:format>image/svg+xml</dc:format><dc:type
           rdf:resource="http://purl.org/dc/dcmitype/StillImage" /><dc:title></dc:title></cc:Work></rdf:RDF></metadata><defs
     id="defs6"><clipPath
       id="clipPath18"
       clipPathUnits="userSpaceOnUse"><path
         id="path16"
         d="M 0,800 H 800 V 0 H 0 Z" /></clipPath><clipPath
       id="clipPath26"
       clipPathUnits="userSpaceOnUse"><path
         id="path24"
         d="M -802.592,1249.64 H 875.185 V -428.134 H -802.592 Z" /></clipPath><clipPath
       id="clipPath58"
       clipPathUnits="userSpaceOnUse"><path
         id="path56"
         d="M 0,800 H 800 V 0 H 0 Z" /></clipPath><clipPath
       id="clipPath66"
       clipPathUnits="userSpaceOnUse"><path
         id="path64"
         d="m 375,487.5 h 150 v -150 H 375 Z" /></clipPath><clipPath
       id="clipPath82"
       clipPathUnits="userSpaceOnUse"><path
         id="path80"
         d="m 325,537.5 h 250 v -250 H 325 Z" /></clipPath><clipPath
       id="clipPath98"
       clipPathUnits="userSpaceOnUse"><path
         id="path96"
         d="m 300,562.5 h 300 v -300 H 300 Z" /></clipPath><clipPath
       id="clipPath114"
       clipPathUnits="userSpaceOnUse"><path
         id="path112"
         d="m 250,612.5 h 400 v -400 H 250 Z" /></clipPath><clipPath
       id="clipPath130"
       clipPathUnits="userSpaceOnUse"><path
         id="path128"
         d="M 0,800 H 800 V 0 H 0 Z" /></clipPath></defs><g
     transform="matrix(1.3333333,0,0,-1.3333333,0,1066.6667)"
     id="g10"><g
       style="fill:#ffffff"
       transform="matrix(1.5117184,0,0,1.5117184,-270.825,-138.54968)"
       id="g162"><path
         d="m 287.5,100 h -50 v 437.5 h 50 z"
         style="fill:#ffffff;fill-opacity:1;fill-rule:nonzero;stroke:none"
         id="path38" /><path
         d="M 287.5,337.5 H 450 v -50 H 287.5 Z"
         style="fill:#ffffff;fill-opacity:1;fill-rule:nonzero;stroke:none"
         id="path40" /><path
         d="m 362.5,362.5 h -50 v 250 h 50 z"
         style="fill:#ffffff;fill-opacity:1;fill-rule:nonzero;stroke:none"
         id="path42" /><path
         d="M 362.5,612.5 H 450 v -50 h -87.5 z"
         style="fill:#ffffff;fill-opacity:1;fill-rule:nonzero;stroke:none"
         id="path44" /><path
         d="M 387.5,537.5 H 450 v -50 h -62.5 z"
         style="fill:#ffffff;fill-opacity:1;fill-rule:nonzero;stroke:none"
         id="path46" /><path
         d="m 312.5,262.5 h 50 V 100 h -50 z"
         style="fill:#ffffff;fill-opacity:1;fill-rule:nonzero;stroke:none"
         id="path48" /><path
         d="M 362.5,262.5 H 450 v -50 h -87.5 z"
         style="fill:#ffffff;fill-opacity:1;fill-rule:nonzero;stroke:none"
         id="path50" /><g
         style="fill:#ffffff"
         id="g124"><g
           style="fill:#ffffff"
           id="g126"
           clip-path="url(#clipPath130)"><g
             style="fill:#ffffff"
             id="g132"
             transform="translate(293.8599,287.5)"><path
               d="M 0,0 H -6.36 V 8.38 C -4.31,5.53 -2.19,2.74 0,0"
               style="fill:#ffffff;fill-opacity:1;fill-rule:nonzero;stroke:none"
               id="path134" /></g><g
             style="fill:#ffffff"
             id="g136"
             transform="translate(575,412.5)"><path
               d="m 0,0 c 0,-69.04 -55.96,-125 -125,-125 h -156.14 c -2.19,2.74 -4.31,5.53 -6.36,8.38 V -312.5 h -50 V 125 h 50 V -75 H -125 c 41.42,0 75,33.58 75,75 0,41.42 -33.58,75 -75,75 h -62.5 v 50 H -125 C -55.96,125 0,69.04 0,0"
               style="fill:#ffffff;fill-opacity:1;fill-rule:nonzero;stroke:none"
               id="path138" /></g><g
             style="fill:#ffffff"
             id="g140"
             transform="translate(650,412.5)"><path
               d="m 0,0 c 0,-110.46 -89.54,-200 -200,-200 h -87.5 v -37.5 h -50 V -150 H -200 c 82.84,0 150,67.16 150,150 0,82.84 -67.16,150 -150,150 h -87.5 V -50 h -50 V 200 H -200 C -89.54,200 0,110.46 0,0"
               style="fill:#ffffff;fill-opacity:1;fill-rule:nonzero;stroke:none"
               id="path142" /></g><path
             d="m 237.5,100 h 125 v 50 h -125 z"
             style="fill:#ffffff;fill-opacity:1;fill-rule:nonzero;stroke:none"
             id="path144" /></g></g></g></g></svg>
